<svg width="206" height="231" viewBox="0 0 206 231" fill="none" xmlns="http://www.w3.org/2000/svg">
<path d="M143.143 84C143.143 96.1503 133.293 106 121.143 106C108.992 106 99.1426 96.1503 99.1426 84C99.1426 71.8497 108.992 62 121.143 62C133.293 62 143.143 71.8497 143.143 84Z" fill="#24C8DB"/>
<path d="M106.143 148C106.143 160.15 96.2929 170 84.1426 170C71.9923 170 62.1426 160.15 62.1426 148C62.1426 135.85 71.9923 126 84.1426 126C96.2929 126 106.143 135.85 106.143 148Z" fill="#24C8DB"/>
<path fill-rule="evenodd" clip-rule="evenodd" d="M143.491 110.691C149.012 105.063 152.143 97.2069 152.143 88.6429C152.143 70.6073 137.536 56 119.5 56C101.464 56 86.857 70.6073 86.857 88.6429C86.857 97.2069 89.9884 105.063 95.5087 110.691C82.4539 113.867 72.3295 123.186 68.4545 135.051C66.1215 133.095 63.2672 131.768 60.1117 131.283C59.7754 130.724 59.4214 130.177 59.0498 129.641C53.8171 122.097 46.1755 116.395 37.2874 113.396C33.6157 112.162 29.7068 111.429 25.6429 111.429C11.4786 111.429 0 122.907 0 137.071C0 151.236 11.4786 162.714 25.6429 162.714C29.7068 162.714 33.6157 161.981 37.2874 160.747C46.1755 157.748 53.8171 152.046 59.0498 144.502C59.4214 143.966 59.7754 143.419 60.1117 142.86C63.2672 142.375 66.1215 141.048 68.4545 139.092C72.3295 150.957 82.4539 160.276 95.5087 163.452C89.9884 169.08 86.857 176.936 86.857 185.5C86.857 203.536 101.464 218.143 119.5 218.143C137.536 218.143 152.143 203.536 152.143 185.5C152.143 176.936 149.012 169.08 143.491 163.452C156.546 160.276 166.671 150.957 170.546 139.092C172.879 141.048 175.733 142.375 178.888 142.86C179.225 143.419 179.579 143.966 179.95 144.502C185.183 152.046 192.825 157.748 201.713 160.747C205.384 161.981 209.293 162.714 213.357 162.714C227.521 162.714 239 151.236 239 137.071C239 122.907 227.521 111.429 213.357 111.429C209.293 111.429 205.384 112.162 201.713 113.396C192.825 116.395 185.183 122.097 179.95 129.641C179.579 130.177 179.225 130.724 178.888 131.283C175.733 131.768 172.879 133.095 170.546 135.051C166.671 123.186 156.546 113.867 143.491 110.691ZM119.5 65C106.245 65 95.857 75.388 95.857 88.6429C95.857 101.898 106.245 112.286 119.5 112.286C132.755 112.286 143.143 101.898 143.143 88.6429C143.143 75.388 132.755 65 119.5 65ZM95.857 185.5C95.857 172.245 106.245 161.857 119.5 161.857C132.755 161.857 143.143 172.245 143.143 185.5C143.143 198.755 132.755 209.143 119.5 209.143C106.245 209.143 95.857 198.755 95.857 185.5Z" fill="#24C8DB"/>
</svg>
